<svg width="80" height="80" viewBox="0 0 80 80" fill="none" xmlns="http://www.w3.org/2000/svg">
<path d="M40.0005 43.3332V69.9999M40.0005 43.3332L26.6671 56.6666M40.0005 43.3332L53.3338 56.6666M13.3338 49.6632C10.8573 47.133 8.98904 44.0723 7.87059 40.713C6.75215 37.3538 6.41283 33.7841 6.87835 30.2742C7.34386 26.7644 8.602 23.4066 10.5575 20.455C12.5129 17.5035 15.1144 15.0356 18.1649 13.2384C21.2154 11.4412 24.6349 10.3617 28.1644 10.0818C31.6938 9.80191 35.2407 10.3289 38.5364 11.6228C41.832 12.9167 44.79 14.9436 47.1863 17.55C49.5825 20.1564 51.3542 23.274 52.3671 26.6666H58.3338C61.5522 26.6662 64.6853 27.701 67.2705 29.618C69.8556 31.5351 71.7555 34.2328 72.6897 37.3126C73.6239 40.3924 73.5427 43.691 72.4582 46.7212C71.3737 49.7513 69.3434 52.3523 66.6672 54.1399" stroke="black" stroke-width="2" stroke-linecap="round" stroke-linejoin="round"/>
</svg>
